<svg width="192" height="130" viewBox="0 0 192 130" fill="none" xmlns="http://www.w3.org/2000/svg"><path d="M52.204 129.8c-11.52 0-21-2.1-28.44-6.3-7.44-4.32-13.02-10.02-16.74-17.1-3.72-7.2-5.82-15.24-6.3-24.12-.12-3.24-.24-6.9-.36-10.98V58.7c.12-4.32.24-8.16.36-11.52.48-8.76 2.64-16.68 6.48-23.76 3.84-7.08 9.48-12.72 16.92-16.92 7.56-4.2 16.92-6.3 28.08-6.3 11.28 0 20.64 2.1 28.08 6.3 7.44 4.2 13.08 9.84 16.92 16.92 3.96 7.08 6.18 15 6.66 23.76.12 3.36.18 7.2.18 11.52.12 4.2.12 8.4 0 12.6 0 4.08-.06 7.74-.18 10.98-.6 8.88-2.76 16.92-6.48 24.12-3.6 7.08-9.12 12.78-16.56 17.1-7.44 4.2-16.98 6.3-28.62 6.3Zm0-26.1c6.12 0 10.62-2.04 13.5-6.12 2.88-4.08 4.38-9.48 4.5-16.2.24-5.04.36-10.56.36-16.56 0-6.12-.12-11.64-.36-16.56-.12-6.48-1.62-11.76-4.5-15.84-2.76-4.2-7.26-6.36-13.5-6.48-6.24.12-10.74 2.28-13.5 6.48-2.76 4.08-4.26 9.36-4.5 15.84-.24 4.92-.36 10.44-.36 16.56 0 6 .12 11.52.36 16.56.24 6.72 1.74 12.12 4.5 16.2 2.88 4.08 7.38 6.12 13.5 6.12ZM163.387 128c-1.2 0-2.28-.42-3.24-1.26-.84-.84-1.26-1.92-1.26-3.24V37.82l-24.66 18.9c-1.08.84-2.22 1.14-3.42.9-1.08-.24-2.04-.9-2.88-1.98l-10.62-13.86c-.72-1.08-1.02-2.22-.9-3.42.24-1.32.96-2.34 2.16-3.06l41.4-32.04c1.2-.84 2.64-1.26 4.32-1.26h22.5c1.32 0 2.4.42 3.24 1.26.84.84 1.26 1.92 1.26 3.24v117c0 1.32-.42 2.4-1.26 3.24-.84.84-1.92 1.26-3.24 1.26h-23.4Z" fill="#fff"/></svg>